<svg width="434" height="434" viewBox="0 0 434 434" fill="none" xmlns="http://www.w3.org/2000/svg">
<path fill-rule="evenodd" clip-rule="evenodd" d="M434 0H0V434H434V0ZM330.289 330.828C332.96 332.007 336.013 332.597 339.451 332.597C343.016 332.597 346.163 332.036 348.89 330.913C351.631 329.791 353.769 328.243 355.303 326.268C356.852 324.294 357.619 322.028 357.604 319.472C357.633 316.801 356.759 314.585 354.984 312.824C353.208 311.048 350.559 309.969 347.036 309.585V309.244C349.636 308.96 351.781 308.037 353.471 306.474C355.175 304.912 356.013 302.909 355.985 300.466C355.999 298.009 355.303 295.828 353.897 293.925C352.505 292.007 350.566 290.501 348.08 289.408C345.609 288.314 342.761 287.767 339.536 287.767C336.241 287.767 333.322 288.349 330.779 289.514C328.237 290.679 326.234 292.284 324.771 294.33C323.322 296.375 322.59 298.733 322.576 301.403H333.911C333.925 300.523 334.174 299.741 334.657 299.06C335.14 298.378 335.8 297.845 336.638 297.462C337.491 297.078 338.457 296.886 339.536 296.886C340.531 296.886 341.404 297.071 342.157 297.44C342.924 297.81 343.521 298.321 343.947 298.974C344.373 299.628 344.579 300.381 344.565 301.233C344.579 302.114 344.33 302.895 343.819 303.577C343.322 304.259 342.619 304.791 341.71 305.175C340.815 305.558 339.778 305.75 338.599 305.75H334.167V313.932H338.599C339.877 313.932 341.006 314.124 341.987 314.507C342.967 314.891 343.727 315.423 344.266 316.105C344.82 316.787 345.09 317.568 345.076 318.449C345.09 319.344 344.863 320.139 344.394 320.835C343.925 321.531 343.272 322.078 342.434 322.476C341.596 322.859 340.63 323.051 339.536 323.051C338.4 323.051 337.391 322.866 336.511 322.497C335.63 322.128 334.934 321.616 334.423 320.963C333.925 320.295 333.67 319.543 333.656 318.705H321.724C321.738 321.418 322.505 323.818 324.025 325.906C325.545 327.994 327.633 329.635 330.289 330.828ZM362.809 332H379.598C384.03 332 387.873 331.134 391.125 329.401C394.378 327.653 396.892 325.153 398.668 321.901C400.444 318.634 401.331 314.727 401.331 310.182C401.331 305.636 400.436 301.737 398.647 298.484C396.871 295.217 394.343 292.717 391.061 290.984C387.794 289.237 383.917 288.364 379.428 288.364H362.809V332ZM379.172 321.943H374.655V298.42H378.831C381.104 298.42 383.022 298.768 384.584 299.464C386.161 300.161 387.354 301.361 388.164 303.065C388.988 304.77 389.4 307.142 389.4 310.182C389.4 313.222 388.995 315.594 388.185 317.298C387.39 319.003 386.225 320.203 384.691 320.899C383.171 321.595 381.331 321.943 379.172 321.943Z" fill="#171717"/>
</svg>
